<?xml version="1.0" encoding="utf-8"?>
<!-- Generator: Adobe Illustrator 29.4.0, SVG Export Plug-In . SVG Version: 9.03 Build 0)  -->
<svg version="1.1" id="Layer_1" xmlns="http://www.w3.org/2000/svg" xmlns:xlink="http://www.w3.org/1999/xlink" x="0px" y="0px"
	 viewBox="0 0 250 250" style="enable-background:new 0 0 250 250;" xml:space="preserve">
<style type="text/css">
	.st0{fill:url(#SVGID_1_);stroke:#333333;stroke-miterlimit:10;}
	.st1{fill:#000033;stroke:#999999;stroke-miterlimit:10;}
</style>
<g id="Layer_1_00000000918518446596419600000007427844287811237531_">
	
		<linearGradient id="SVGID_1_" gradientUnits="userSpaceOnUse" x1="41.8969" y1="592.1025" x2="256.7458" y2="478.0831" gradientTransform="matrix(1 0 0 1 0 -423)">
		<stop  offset="0.0529" style="stop-color:#33CCCC"/>
		<stop  offset="0.0637" style="stop-color:#33C8C8"/>
		<stop  offset="0.1366" style="stop-color:#33B3B3"/>
		<stop  offset="0.2182" style="stop-color:#33A4A4"/>
		<stop  offset="0.3145" style="stop-color:#339C9C"/>
		<stop  offset="0.4626" style="stop-color:#339999"/>
		<stop  offset="0.5384" style="stop-color:#248A8A"/>
		<stop  offset="0.6702" style="stop-color:#107676"/>
		<stop  offset="0.8024" style="stop-color:#046A6A"/>
		<stop  offset="0.9349" style="stop-color:#006666"/>
	</linearGradient>
	<circle class="st0" cx="125" cy="125" r="123.05"/>
</g>
<g id="Layer_2_00000054247986500105574540000012210051143775076271_">
	<g>
		<g>
			<path class="st1" d="M175.76,202.87v-4.48c13.12-1.28,13.6-2.24,13.44-19.36l0.16-65.28c-13.12,29.28-34.24,75.04-39.84,89.12
				h-4.16c-5.44-14.56-23.52-58.56-35.68-87.52c-2.72,56-2.88,68.64-2.88,71.68c0.16,8.96,4.16,10.24,15.04,11.36v4.48H83.92v-4.48
				c9.28-0.96,13.12-2.88,14.4-11.52c0.96-7.04,1.12-12.8,5.28-71.2c0.64-8.32-0.96-11.04-15.04-12.32v-4.48h27.84l35.36,81.12
				l37.92-81.12h28v4.48c-13.76,1.6-15.52,3.04-15.2,14.24l0.64,61.44c0.64,17.12,1.12,17.92,15.2,19.36v4.48L175.76,202.87
				L175.76,202.87z"/>
		</g>
	</g>
	<g>
		<g>
			<path class="st1" d="M89.98,73.18c-2.89-11.22-7.65-22.27-23.63-22.27c-13.26,0-17.85,9.69-17.85,18.53
				c0,11.73,7.48,17.68,21.59,24.99c20.4,10.54,29.24,18.36,29.24,34.51c0,17.85-15.47,31.45-37.4,31.45
				c-10.2,0-19.04-2.89-26.01-5.61c-1.36-4.76-3.4-16.32-4.59-25.5l5.27-1.36c3.4,11.39,10.88,26.18,28.56,26.18
				c12.24,0,19.72-8.5,19.72-19.55c0-13.09-6.97-18.36-21.93-26.52C45.1,98.34,35.07,90.18,35.07,74.37
				c0-15.13,12.58-29.41,35.02-29.41c9.52,0,18.87,2.55,22.44,3.23c0.68,6.12,1.36,12.92,2.72,23.97L89.98,73.18z"/>
		</g>
	</g>
</g>
<g>
	<g>
		<path class="st1" d="M110.81,92.6c-1.05,0.56-2.05,0.81-2.67,0.81c-3.97,0-6.08-2.42-6.08-7.38V67.99h-4.28l-0.25-0.74l1.67-1.8
			h2.85v-5.21c1.18-1.24,2.98-2.85,4.15-4.09l0.93,0.12c-0.12,2.6-0.19,6.2-0.19,9.18h7.07c0.56,0.62,0.37,1.98-0.37,2.54h-6.7
			v15.87c0,5.02,1.98,5.95,3.6,5.95c1.49,0,2.91-0.56,3.78-0.99l0.56,1.61L110.81,92.6z"/>
		<path class="st1" d="M137.4,93.41c-0.93,0-2.29-0.5-2.91-1.18c-0.81-0.81-1.18-1.67-1.49-2.79c-2.48,1.67-5.52,3.97-7.44,3.97
			c-4.4,0-7.56-3.66-7.56-7.63c0-3.04,1.67-5.02,5.08-6.2c3.78-1.3,8.43-2.91,9.8-4.03v-1.24c0-4.4-2.23-6.94-5.46-6.94
			c-1.43,0-2.29,0.68-2.91,1.43c-0.68,0.87-1.12,2.23-1.67,4.03c-0.31,0.99-0.87,1.43-1.8,1.43c-1.18,0-2.73-1.24-2.73-2.73
			c0-0.87,0.81-1.61,2.05-2.48c1.8-1.3,5.39-3.6,8.93-4.34c1.86,0,3.78,0.56,5.21,1.67c2.17,1.86,3.16,3.97,3.16,7.19v11.97
			c0,2.85,1.05,3.72,2.17,3.72c0.74,0,1.55-0.31,2.23-0.68l0.62,1.74L137.4,93.41z M132.88,77.72c-1.36,0.68-4.34,1.98-5.77,2.6
			c-2.36,1.05-3.78,2.23-3.78,4.53c0,3.29,2.48,4.77,4.46,4.77c1.61,0,3.84-0.99,5.08-2.23C132.88,84.48,132.88,80.64,132.88,77.72z
			"/>
		<path class="st1" d="M165.18,93.41c-0.93,0-2.29-0.5-2.91-1.18c-0.81-0.81-1.18-1.67-1.49-2.79c-2.48,1.67-5.52,3.97-7.44,3.97
			c-4.4,0-7.56-3.66-7.56-7.63c0-3.04,1.67-5.02,5.08-6.2c3.78-1.3,8.43-2.91,9.79-4.03v-1.24c0-4.4-2.23-6.94-5.46-6.94
			c-1.43,0-2.29,0.68-2.91,1.43c-0.68,0.87-1.12,2.23-1.67,4.03c-0.31,0.99-0.87,1.43-1.8,1.43c-1.18,0-2.73-1.24-2.73-2.73
			c0-0.87,0.81-1.61,2.05-2.48c1.8-1.3,5.39-3.6,8.93-4.34c1.86,0,3.78,0.56,5.21,1.67c2.17,1.86,3.16,3.97,3.16,7.19v11.97
			c0,2.85,1.05,3.72,2.17,3.72c0.74,0,1.55-0.31,2.23-0.68l0.62,1.74L165.18,93.41z M160.65,77.72c-1.36,0.68-4.34,1.98-5.77,2.6
			c-2.36,1.05-3.78,2.23-3.78,4.53c0,3.29,2.48,4.77,4.46,4.77c1.61,0,3.84-0.99,5.08-2.23C160.65,84.48,160.65,80.64,160.65,77.72z
			"/>
		<path class="st1" d="M172.12,92.66v-1.74c3.97-0.37,4.46-0.68,4.46-4.77v-29.7c0-3.78-0.31-4.15-4.28-4.65V50.2
			c3.35-0.37,7.19-1.36,9.18-2.11c0,2.91,0,5.89,0,8.8v29.26c0,4.09,0.37,4.4,4.4,4.77v1.74H172.12z"/>
	</g>
</g>
</svg>
