<?xml version="1.0" encoding="utf-8"?>
<!-- Generator: Adobe Illustrator 29.4.0, SVG Export Plug-In . SVG Version: 9.03 Build 0)  -->
<svg version="1.1" id="Layer_1" xmlns="http://www.w3.org/2000/svg" xmlns:xlink="http://www.w3.org/1999/xlink" x="0px" y="0px"
	 viewBox="0 0 250 250" style="enable-background:new 0 0 250 250;" xml:space="preserve">
<style type="text/css">
	.st0{fill:url(#SVGID_1_);stroke:#333333;stroke-miterlimit:10;}
	.st1{fill:#000033;stroke:#999999;stroke-miterlimit:10;}
</style>
<g id="Layer_1_00000000918518446596419600000007427844287811237531_">
	
		<linearGradient id="SVGID_1_" gradientUnits="userSpaceOnUse" x1="41.8969" y1="82.8975" x2="256.7458" y2="196.9169" gradientTransform="matrix(1 0 0 -1 0 252)">
		<stop  offset="0.0529" style="stop-color:#33CCCC"/>
		<stop  offset="0.0637" style="stop-color:#33C8C8"/>
		<stop  offset="0.1366" style="stop-color:#33B3B3"/>
		<stop  offset="0.2182" style="stop-color:#33A4A4"/>
		<stop  offset="0.3145" style="stop-color:#339C9C"/>
		<stop  offset="0.4626" style="stop-color:#339999"/>
		<stop  offset="0.5384" style="stop-color:#248A8A"/>
		<stop  offset="0.6702" style="stop-color:#107676"/>
		<stop  offset="0.8024" style="stop-color:#046A6A"/>
		<stop  offset="0.9349" style="stop-color:#006666"/>
	</linearGradient>
	<circle class="st0" cx="125" cy="125" r="123.05"/>
</g>
<g id="Layer_2_00000054247986500105574540000012210051143775076271_">
	<g>
		<g>
			<path class="st1" d="M175.76,202.87v-4.48c13.12-1.28,13.6-2.24,13.44-19.36l0.16-65.28c-13.12,29.28-34.24,75.04-39.84,89.12
				h-4.16c-5.44-14.56-23.52-58.56-35.68-87.52c-2.72,56-2.88,68.64-2.88,71.68c0.16,8.96,4.16,10.24,15.04,11.36v4.48H83.92v-4.48
				c9.28-0.96,13.12-2.88,14.4-11.52c0.96-7.04,1.12-12.8,5.28-71.2c0.64-8.32-0.96-11.04-15.04-12.32v-4.48h27.84l35.36,81.12
				l37.92-81.12h28v4.48c-13.76,1.6-15.52,3.04-15.2,14.24l0.64,61.44c0.64,17.12,1.12,17.92,15.2,19.36v4.48H175.76z"/>
		</g>
	</g>
	<g>
		<g>
			<path class="st1" d="M89.98,73.18c-2.89-11.22-7.65-22.27-23.63-22.27c-13.26,0-17.85,9.69-17.85,18.53
				c0,11.73,7.48,17.68,21.59,24.99c20.4,10.54,29.24,18.36,29.24,34.51c0,17.85-15.47,31.45-37.4,31.45
				c-10.2,0-19.04-2.89-26.01-5.61c-1.36-4.76-3.4-16.32-4.59-25.5l5.27-1.36c3.4,11.39,10.88,26.18,28.56,26.18
				c12.24,0,19.72-8.5,19.72-19.55c0-13.09-6.97-18.36-21.93-26.52C45.1,98.34,35.07,90.18,35.07,74.37
				c0-15.13,12.58-29.41,35.02-29.41c9.52,0,18.87,2.55,22.44,3.23c0.68,6.12,1.36,12.92,2.72,23.97L89.98,73.18z"/>
		</g>
	</g>
</g>
</svg>
